<svg xmlns="http://www.w3.org/2000/svg" width="1200" height="520" viewBox="0 0 1200 520" fill="none">
  <rect width="1200" height="520" fill="#F8FAFC"/>
  <rect x="28" y="28" width="1144" height="464" rx="10" stroke="#CBD5E1" stroke-width="2"/>

  <g opacity="0.45" stroke="#94A3B8" stroke-width="1">
    <path d="M80 90H1120"/>
    <path d="M80 150H1120"/>
    <path d="M80 210H1120"/>
    <path d="M80 270H1120"/>
    <path d="M80 330H1120"/>
    <path d="M80 390H1120"/>
    <path d="M80 450H1120"/>

    <path d="M120 70V450"/>
    <path d="M220 70V450"/>
    <path d="M320 70V450"/>
    <path d="M420 70V450"/>
    <path d="M520 70V450"/>
    <path d="M620 70V450"/>
    <path d="M720 70V450"/>
    <path d="M820 70V450"/>
    <path d="M920 70V450"/>
    <path d="M1020 70V450"/>
  </g>

  <rect x="130" y="110" width="500" height="290" rx="8" fill="#FFFFFF" stroke="#CBD5E1" stroke-width="2"/>
  <rect x="150" y="135" width="200" height="18" rx="4" fill="#0D2B45"/>
  <rect x="150" y="170" width="445" height="10" rx="4" fill="#CBD5E1"/>
  <rect x="150" y="190" width="420" height="10" rx="4" fill="#CBD5E1"/>
  <rect x="150" y="210" width="395" height="10" rx="4" fill="#CBD5E1"/>

  <rect x="150" y="255" width="120" height="120" rx="8" fill="#F8FAFC" stroke="#CBD5E1" stroke-width="2"/>
  <circle cx="210" cy="315" r="33" stroke="#0D2B45" stroke-width="3"/>
  <path d="M210 286V344" stroke="#0D2B45" stroke-width="3"/>
  <path d="M181 315H239" stroke="#0D2B45" stroke-width="3"/>

  <rect x="290" y="255" width="305" height="24" rx="4" fill="#E2E8F0"/>
  <rect x="290" y="289" width="275" height="24" rx="4" fill="#E2E8F0"/>
  <rect x="290" y="323" width="245" height="24" rx="4" fill="#E2E8F0"/>

  <g transform="translate(720 118)">
    <polygon points="90,0 180,170 0,170" fill="#F59E0B"/>
    <polygon points="90,40 146,146 34,146" fill="#FDBA74"/>
    <rect x="38" y="82" width="104" height="14" fill="#FFFFFF"/>
    <rect x="28" y="115" width="124" height="14" fill="#FFFFFF"/>
  </g>

  <g transform="translate(930 210)">
    <polygon points="70,0 140,130 0,130" fill="#F59E0B"/>
    <polygon points="70,30 112,110 28,110" fill="#FDBA74"/>
    <rect x="28" y="62" width="84" height="12" fill="#FFFFFF"/>
    <rect x="20" y="88" width="100" height="12" fill="#FFFFFF"/>
  </g>

  <rect x="700" y="370" width="410" height="30" rx="8" fill="#0D2B45"/>
  <text x="905" y="391" text-anchor="middle" fill="#FFFFFF" font-family="Inter, Arial, sans-serif" font-size="14" letter-spacing="1.5">
    SECCIÓN EN CONSTRUCCIÓN
  </text>
</svg>
